<svg width="16" height="16" viewBox="0 0 16 16" fill="none" xmlns="http://www.w3.org/2000/svg">
<mask id="mask0_1_35626" style="mask-type:luminance" maskUnits="userSpaceOnUse" x="0" y="0" width="16" height="16">
<path d="M16 0H0V16H16V0Z" fill="white"/>
</mask>
<g mask="url(#mask0_1_35626)">
<path d="M14.0002 5.16665H6.00016C5.36016 5.16665 4.8335 4.63998 4.8335 3.99998V1.99998C4.8335 1.35998 5.36016 0.833313 6.00016 0.833313H14.0002C14.6402 0.833313 15.1668 1.35998 15.1668 1.99998V3.99998C15.1668 4.63998 14.6402 5.16665 14.0002 5.16665ZM6.00016 1.83331C5.90683 1.83331 5.8335 1.90665 5.8335 1.99998V3.99998C5.8335 4.09331 5.90683 4.16665 6.00016 4.16665H14.0002C14.0935 4.16665 14.1668 4.09331 14.1668 3.99998V1.99998C14.1668 1.90665 14.0935 1.83331 14.0002 1.83331H6.00016Z" fill="white"/>
<path d="M8.00033 15.1666H4.66699C4.39366 15.1666 4.16699 14.94 4.16699 14.6666V11.3333C4.16699 11.06 4.39366 10.8333 4.66699 10.8333H8.00033C8.27366 10.8333 8.50033 11.06 8.50033 11.3333V14.6666C8.50033 14.94 8.27366 15.1666 8.00033 15.1666ZM5.16699 14.1666H7.50033V11.8333H5.16699V14.1666Z" fill="white"/>
<path d="M4.66683 10.1666H1.3335C1.06016 10.1666 0.833496 9.93998 0.833496 9.66665V6.33331C0.833496 6.05998 1.06016 5.83331 1.3335 5.83331H4.66683C4.94016 5.83331 5.16683 6.05998 5.16683 6.33331V9.66665C5.16683 9.93998 4.94016 10.1666 4.66683 10.1666ZM1.8335 9.16665H4.16683V6.83331H1.8335V9.16665Z" fill="white"/>
<path d="M12.0002 10.0737H6.3335C6.06016 10.0737 5.8335 9.84705 5.8335 9.57372V6.42706C5.8335 6.15374 6.06016 5.92706 6.3335 5.92706H12.0002C12.2735 5.92706 12.5002 6.15374 12.5002 6.42706V9.57372C12.5002 9.85372 12.2735 10.0737 12.0002 10.0737ZM6.8335 9.07372H11.5002V6.92705H6.8335V9.07372Z" fill="white"/>
</g>
</svg>
