<svg width="16" height="19" viewBox="0 0 16 19" fill="none" xmlns="http://www.w3.org/2000/svg">
<g clip-path="url(#clip0_5755_52165)">
<path d="M11.2 4.74998H4.79998M6.39998 7.91665H4.79998M1.59998 14.7614V6.37606C1.59998 4.11665 1.59998 2.98773 2.30318 2.28552C3.00558 1.58331 4.13758 1.58331 6.39998 1.58331H9.59998C11.8624 1.58331 12.9944 1.58331 13.6968 2.28552C14.4 2.98694 14.4 4.11665 14.4 6.37606V14.7614C14.4 15.9576 14.4 16.5561 14.0304 16.792C13.4264 17.1768 12.4928 16.3693 12.0232 16.0764C11.6352 15.8341 11.4416 15.7138 11.2256 15.7066C10.9936 15.6987 10.796 15.8151 10.3768 16.0764L8.84798 17.0303C8.43518 17.2876 8.22958 17.4166 7.99998 17.4166C7.77038 17.4166 7.56477 17.2876 7.15197 17.0303L5.62398 16.0764C5.23518 15.8341 5.04158 15.7138 4.82638 15.7066C4.59358 15.6987 4.39598 15.8151 3.97678 16.0764C3.50718 16.3693 2.57358 17.1768 1.96878 16.792C1.59998 16.5561 1.59998 15.9584 1.59998 14.7614Z" stroke="white" stroke-width="1.5" stroke-linecap="round" stroke-linejoin="round"/>
<path d="M9.99993 7.81771C9.33753 7.81771 8.79993 8.28321 8.79993 8.85717C8.79993 9.43033 9.33753 9.89583 9.99993 9.89583C10.6623 9.89583 11.1999 10.3613 11.1999 10.9353C11.1999 11.5085 10.6623 11.974 9.99993 11.974M9.99993 7.81771C10.5223 7.81771 10.9671 8.10667 11.1319 8.51042M9.99993 7.81771V7.125M9.99993 11.974C9.47753 11.974 9.03273 11.685 8.86793 11.2813M9.99993 11.974V12.6667" stroke="white" stroke-width="1.5" stroke-linecap="round"/>
</g>
<defs>
<clipPath id="clip0_5755_52165">
<rect width="16" height="19" fill="white"/>
</clipPath>
</defs>
</svg>
