<svg width="24" height="24" viewBox="0 0 24 24" fill="none" xmlns="http://www.w3.org/2000/svg">
<path d="M7.05003 11.293L4.93003 13.414C4.17986 14.1642 3.75842 15.1816 3.75842 16.2425C3.75842 17.3034 4.17986 18.3208 4.93003 19.071C5.68019 19.8212 6.69763 20.2426 7.75853 20.2426C8.81942 20.2426 9.83686 19.8212 10.587 19.071L13.415 16.243C13.7865 15.8716 14.0811 15.4306 14.2822 14.9453C14.4832 14.46 14.5867 13.9398 14.5867 13.4145C14.5867 12.8892 14.4832 12.369 14.2822 11.8837C14.0811 11.3984 13.7865 10.9574 13.415 10.586L12.355 11.646C12.5872 11.8782 12.7715 12.1538 12.8971 12.4571C13.0228 12.7605 13.0875 13.0856 13.0875 13.414C13.0875 13.7424 13.0228 14.0675 12.8971 14.3709C12.7715 14.6742 12.5872 14.9498 12.355 15.182L9.52503 18.01C9.05352 18.4654 8.42202 18.7174 7.76652 18.7117C7.11103 18.706 6.484 18.4431 6.02048 17.9795C5.55696 17.516 5.29404 16.889 5.28834 16.2335C5.28264 15.578 5.53463 14.9465 5.99003 14.475L8.11003 12.354L7.05003 11.293Z" fill="black"/>
<path d="M15.889 11.646L18.01 9.52599C18.4755 9.05651 18.7361 8.42175 18.7347 7.76061C18.7334 7.09946 18.4702 6.46577 18.0027 5.99821C17.5353 5.53064 16.9017 5.26727 16.2405 5.26573C15.5794 5.26419 14.9446 5.5246 14.475 5.98999L11.646 8.81799C11.4137 9.05014 11.2295 9.32577 11.1039 9.62913C10.9782 9.93248 10.9135 10.2576 10.9135 10.586C10.9135 10.9143 10.9782 11.2395 11.1039 11.5428C11.2295 11.8462 11.4137 12.1218 11.646 12.354L10.586 13.414C10.2145 13.0426 9.91984 12.6016 9.71881 12.1163C9.51778 11.631 9.41431 11.1108 9.41431 10.5855C9.41431 10.0602 9.51778 9.54002 9.71881 9.05471C9.91984 8.56939 10.2145 8.12843 10.586 7.75699L13.414 4.92899C14.1641 4.17882 15.1816 3.75739 16.2425 3.75739C17.3033 3.75739 18.3208 4.17882 19.071 4.92899C19.8211 5.67915 20.2426 6.69659 20.2426 7.75749C20.2426 8.81838 19.8211 9.83582 19.071 10.586L16.95 12.707L15.889 11.646Z" fill="black"/>
</svg>
