<svg width="18" height="18" viewBox="0 0 18 18" fill="none" xmlns="http://www.w3.org/2000/svg">
<path d="M7.875 5.4375C7.77554 5.4375 7.68016 5.47701 7.60983 5.54734C7.53951 5.61766 7.5 5.71304 7.5 5.8125C7.5 5.91196 7.53951 6.00734 7.60983 6.07767C7.68016 6.14799 7.77554 6.1875 7.875 6.1875H10.125C10.2245 6.1875 10.3198 6.14799 10.3902 6.07767C10.4605 6.00734 10.5 5.91196 10.5 5.8125C10.5 5.71304 10.4605 5.61766 10.3902 5.54734C10.3198 5.47701 10.2245 5.4375 10.125 5.4375H7.875ZM7.125 9.5625C7.125 9.76141 7.04598 9.95218 6.90533 10.0928C6.76468 10.2335 6.57391 10.3125 6.375 10.3125C6.17609 10.3125 5.98532 10.2335 5.84467 10.0928C5.70402 9.95218 5.625 9.76141 5.625 9.5625C5.625 9.36359 5.70402 9.17282 5.84467 9.03217C5.98532 8.89152 6.17609 8.8125 6.375 8.8125C6.57391 8.8125 6.76468 8.89152 6.90533 9.03217C7.04598 9.17282 7.125 9.36359 7.125 9.5625ZM7.125 12.1875C7.125 12.3864 7.04598 12.5772 6.90533 12.7178C6.76468 12.8585 6.57391 12.9375 6.375 12.9375C6.17609 12.9375 5.98532 12.8585 5.84467 12.7178C5.70402 12.5772 5.625 12.3864 5.625 12.1875C5.625 11.9886 5.70402 11.7978 5.84467 11.6572C5.98532 11.5165 6.17609 11.4375 6.375 11.4375C6.57391 11.4375 6.76468 11.5165 6.90533 11.6572C7.04598 11.7978 7.125 11.9886 7.125 12.1875ZM9 10.3125C9.19891 10.3125 9.38968 10.2335 9.53033 10.0928C9.67098 9.95218 9.75 9.76141 9.75 9.5625C9.75 9.36359 9.67098 9.17282 9.53033 9.03217C9.38968 8.89152 9.19891 8.8125 9 8.8125C8.80109 8.8125 8.61032 8.89152 8.46967 9.03217C8.32902 9.17282 8.25 9.36359 8.25 9.5625C8.25 9.76141 8.32902 9.95218 8.46967 10.0928C8.61032 10.2335 8.80109 10.3125 9 10.3125ZM9.75 12.1875C9.75 12.3864 9.67098 12.5772 9.53033 12.7178C9.38968 12.8585 9.19891 12.9375 9 12.9375C8.80109 12.9375 8.61032 12.8585 8.46967 12.7178C8.32902 12.5772 8.25 12.3864 8.25 12.1875C8.25 11.9886 8.32902 11.7978 8.46967 11.6572C8.61032 11.5165 8.80109 11.4375 9 11.4375C9.19891 11.4375 9.38968 11.5165 9.53033 11.6572C9.67098 11.7978 9.75 11.9886 9.75 12.1875ZM11.625 10.3125C11.8239 10.3125 12.0147 10.2335 12.1553 10.0928C12.296 9.95218 12.375 9.76141 12.375 9.5625C12.375 9.36359 12.296 9.17282 12.1553 9.03217C12.0147 8.89152 11.8239 8.8125 11.625 8.8125C11.4261 8.8125 11.2353 8.89152 11.0947 9.03217C10.954 9.17282 10.875 9.36359 10.875 9.5625C10.875 9.76141 10.954 9.95218 11.0947 10.0928C11.2353 10.2335 11.4261 10.3125 11.625 10.3125Z" fill="#6B788E"/>
<path fill-rule="evenodd" clip-rule="evenodd" d="M6 2.625C6.09946 2.625 6.19484 2.66451 6.26517 2.73484C6.33549 2.80516 6.375 2.90054 6.375 3V3.75H11.625V3C11.625 2.90054 11.6645 2.80516 11.7348 2.73484C11.8052 2.66451 11.9005 2.625 12 2.625C12.0995 2.625 12.1948 2.66451 12.2652 2.73484C12.3355 2.80516 12.375 2.90054 12.375 3V3.75225C12.5585 3.75375 12.722 3.76025 12.8655 3.77175C13.1392 3.79425 13.3793 3.8415 13.6012 3.954C13.954 4.13392 14.2407 4.42088 14.4202 4.77375C14.5335 4.99575 14.5808 5.23575 14.6033 5.50875C14.625 5.775 14.625 6.10275 14.625 6.50925V12.2407C14.625 12.6472 14.625 12.9757 14.6033 13.2405C14.5808 13.5142 14.5335 13.7543 14.4202 13.9762C14.2405 14.3288 13.9538 14.6155 13.6012 14.7952C13.3793 14.9085 13.1393 14.9558 12.8663 14.9783C12.6 15 12.2722 15 11.8665 15H6.13425C5.72775 15 5.39925 15 5.1345 14.9783C4.86075 14.9558 4.62075 14.9085 4.39875 14.7952C4.04588 14.6157 3.75892 14.329 3.579 13.9762C3.4665 13.7543 3.41925 13.5143 3.39675 13.2413C3.375 12.975 3.375 12.6465 3.375 12.24V6.51C3.375 6.15375 3.375 5.859 3.39 5.61225L3.39675 5.51025C3.41925 5.2365 3.4665 4.9965 3.579 4.7745C3.75879 4.42152 4.04577 4.13454 4.39875 3.95475C4.62075 3.84225 4.86075 3.795 5.13375 3.7725C5.27825 3.761 5.442 3.7545 5.625 3.753V3C5.625 2.90054 5.66451 2.80516 5.73484 2.73484C5.80516 2.66451 5.90054 2.625 6 2.625ZM5.625 4.875V4.50225C5.4816 4.50343 5.33828 4.50919 5.19525 4.5195C4.96875 4.5375 4.83825 4.572 4.73925 4.62225C4.52738 4.73014 4.35514 4.90238 4.24725 5.11425C4.197 5.21325 4.1625 5.34375 4.1445 5.57025C4.125 5.802 4.125 6.099 4.125 6.525V6.9375H13.875V6.525C13.875 6.099 13.875 5.802 13.8555 5.57025C13.8375 5.34375 13.803 5.21325 13.7528 5.11425C13.6449 4.90238 13.4726 4.73014 13.2607 4.62225C13.1617 4.572 13.0312 4.5375 12.8048 4.5195C12.6617 4.50919 12.5184 4.50343 12.375 4.50225V4.875C12.375 4.97446 12.3355 5.06984 12.2652 5.14016C12.1948 5.21049 12.0995 5.25 12 5.25C11.9005 5.25 11.8052 5.21049 11.7348 5.14016C11.6645 5.06984 11.625 4.97446 11.625 4.875V4.5H6.375V4.875C6.375 4.97446 6.33549 5.06984 6.26517 5.14016C6.19484 5.21049 6.09946 5.25 6 5.25C5.90054 5.25 5.80516 5.21049 5.73484 5.14016C5.66451 5.06984 5.625 4.97446 5.625 4.875ZM13.875 7.6875H4.125V12.225C4.125 12.651 4.125 12.9487 4.1445 13.1798C4.1625 13.4062 4.197 13.5367 4.24725 13.6357C4.35514 13.8476 4.52738 14.0199 4.73925 14.1278C4.83825 14.178 4.96875 14.2125 5.19525 14.2305C5.427 14.25 5.724 14.25 6.15 14.25H11.85C12.276 14.25 12.5737 14.25 12.8048 14.2305C13.0312 14.2125 13.1617 14.178 13.2607 14.1278C13.4726 14.0199 13.6449 13.8476 13.7528 13.6357C13.803 13.5367 13.8375 13.4062 13.8555 13.1798C13.875 12.9487 13.875 12.651 13.875 12.225V7.6875Z" fill="#6B788E"/>
</svg>
