<svg width="21" height="21" viewBox="0 0 21 21" fill="none" xmlns="http://www.w3.org/2000/svg">
<path d="M10.5 17.7392C9.06823 17.7392 7.66862 17.3146 6.47815 16.5191C5.28768 15.7237 4.35983 14.5931 3.81191 13.2703C3.264 11.9475 3.12064 10.492 3.39997 9.08774C3.67929 7.68349 4.36875 6.3936 5.38116 5.38119C6.39357 4.36878 7.68346 3.67932 9.08771 3.4C10.492 3.12067 11.9475 3.26403 13.2703 3.81194C14.5931 4.35986 15.7237 5.28771 16.5191 6.47818C17.3146 7.66865 17.7391 9.06826 17.7391 10.5C17.7391 12.42 16.9764 14.2613 15.6188 15.6189C14.2612 16.9765 12.4199 17.7392 10.5 17.7392ZM10.5 4.46742C9.30686 4.46742 8.14052 4.82123 7.14846 5.4841C6.1564 6.14697 5.38319 7.08913 4.92659 8.19145C4.47 9.29376 4.35053 10.5067 4.5833 11.6769C4.81607 12.8471 5.39062 13.9221 6.2343 14.7657C7.07797 15.6094 8.15288 16.184 9.32309 16.4167C10.4933 16.6495 11.7063 16.53 12.8086 16.0734C13.9109 15.6168 14.8531 14.8436 15.5159 13.8516C16.1788 12.8595 16.5326 11.6932 16.5326 10.5C16.5326 8.90008 15.897 7.36566 14.7657 6.23433C13.6344 5.103 12.0999 4.46742 10.5 4.46742Z" fill="#0045BB"/>
<path d="M12.913 11.1033H10.5C10.3406 11.1012 10.1884 11.037 10.0757 10.9243C9.96304 10.8116 9.89881 10.6593 9.89673 10.5V6.47826C9.89673 6.31827 9.96029 6.16482 10.0734 6.05169C10.1866 5.93856 10.34 5.875 10.5 5.875C10.66 5.875 10.8134 5.93856 10.9266 6.05169C11.0397 6.16482 11.1033 6.31827 11.1033 6.47826V9.89674H12.913C13.073 9.89674 13.2265 9.9603 13.3396 10.0734C13.4527 10.1866 13.5163 10.34 13.5163 10.5C13.5163 10.66 13.4527 10.8134 13.3396 10.9266C13.2265 11.0397 13.073 11.1033 12.913 11.1033Z" fill="#0045BB"/>
</svg>
