<svg width="25" height="24" viewBox="0 0 25 24" fill="none" xmlns="http://www.w3.org/2000/svg">
<path d="M9.05651 2.74805H5.18151C4.92773 2.74778 4.67638 2.79758 4.44186 2.89458C4.20734 2.99158 3.99425 3.13388 3.8148 3.31333C3.63534 3.49279 3.49304 3.70587 3.39604 3.94039C3.29904 4.17491 3.24925 4.42626 3.24951 4.68005V8.55505C3.24898 9.06853 3.45204 9.56128 3.81419 9.92531C4.17634 10.2893 4.66803 10.4949 5.18151 10.497H9.05651C9.31161 10.4973 9.56426 10.4473 9.8 10.3498C10.0357 10.2523 10.2499 10.1092 10.4303 9.92884C10.6107 9.74845 10.7537 9.53426 10.8512 9.29853C10.9487 9.0628 10.9988 8.81015 10.9985 8.55505V4.68005C10.9964 4.16657 10.7908 3.67487 10.4268 3.31272C10.0627 2.95057 9.57 2.74751 9.05651 2.74805ZM19.8175 2.74805H15.9425C15.429 2.74751 14.9363 2.95057 14.5723 3.31272C14.2082 3.67487 14.0026 4.16657 14.0005 4.68005V8.55505C14.0008 9.07002 14.2055 9.56382 14.5696 9.92796C14.9337 10.2921 15.4275 10.4968 15.9425 10.497H19.8175C20.331 10.4949 20.8227 10.2893 21.1848 9.92531C21.547 9.56128 21.75 9.06853 21.7495 8.55505V4.68005C21.7498 4.42626 21.7 4.17491 21.603 3.94039C21.506 3.70587 21.3637 3.49279 21.1842 3.31333C21.0048 3.13388 20.7917 2.99158 20.5572 2.89458C20.3226 2.79758 20.0713 2.74778 19.8175 2.74805ZM19.8175 13.498H15.9425C15.4289 13.4975 14.936 13.7007 14.5719 14.0631C14.2079 14.4254 14.0024 14.9174 14.0005 15.431V19.3061C14.0003 19.5612 14.0503 19.8138 14.1478 20.0495C14.2453 20.2853 14.3883 20.4995 14.5687 20.6798C14.7491 20.8602 14.9633 21.0033 15.199 21.1008C15.4348 21.1983 15.6874 21.2483 15.9425 21.248H19.8175C20.331 21.2459 20.8227 21.0403 21.1848 20.6763C21.547 20.3123 21.75 19.8195 21.7495 19.3061V15.431C21.7498 15.1773 21.7 14.9259 21.603 14.6914C21.506 14.4569 21.3637 14.2438 21.1842 14.0643C21.0048 13.8849 20.7917 13.7426 20.5572 13.6456C20.3226 13.5486 20.0713 13.4988 19.8175 13.499M9.05651 13.498H5.18151C4.66811 13.501 4.17672 13.7069 3.81471 14.071C3.4527 14.4351 3.2495 14.9276 3.24951 15.441V19.316C3.24925 19.5698 3.29904 19.8212 3.39604 20.0557C3.49304 20.2902 3.63534 20.5033 3.8148 20.6828C3.99425 20.8622 4.20734 21.0045 4.44186 21.1015C4.67638 21.1985 4.92773 21.2483 5.18151 21.248H9.05651C9.57 21.2486 10.0627 21.0455 10.4268 20.6834C10.7908 20.3212 10.9964 19.8295 10.9985 19.316V15.441C10.9988 15.1859 10.9487 14.9333 10.8512 14.6976C10.7537 14.4618 10.6107 14.2476 10.4303 14.0673C10.2499 13.8869 10.0357 13.7438 9.8 13.6463C9.56426 13.5488 9.31161 13.4988 9.05651 13.499" fill="url(#paint0_linear_1_32938)"/>
<path d="M19.8175 13.498H15.9425C15.4289 13.4975 14.936 13.7007 14.5719 14.0631C14.2079 14.4254 14.0024 14.9174 14.0005 15.431V19.3061C14.0003 19.5612 14.0503 19.8138 14.1478 20.0495C14.2453 20.2853 14.3883 20.4995 14.5687 20.6798C14.7491 20.8602 14.9633 21.0033 15.199 21.1008C15.4348 21.1983 15.6874 21.2483 15.9425 21.248H19.8175C20.331 21.2459 20.8227 21.0403 21.1848 20.6763C21.547 20.3123 21.75 19.8195 21.7495 19.3061V15.431C21.7498 15.1773 21.7 14.9259 21.603 14.6914C21.506 14.4569 21.3637 14.2438 21.1842 14.0643C21.0048 13.8849 20.7917 13.7426 20.5572 13.6456C20.3226 13.5486 20.0713 13.4988 19.8175 13.499M9.05651 13.498H5.18151C4.66811 13.501 4.17672 13.7069 3.81471 14.071C3.4527 14.4351 3.2495 14.9276 3.24951 15.441V19.316C3.24925 19.5698 3.29904 19.8212 3.39604 20.0557C3.49304 20.2902 3.63534 20.5033 3.8148 20.6828C3.99425 20.8622 4.20734 21.0045 4.44186 21.1015C4.67638 21.1985 4.92773 21.2483 5.18151 21.248H9.05651C9.57 21.2486 10.0627 21.0455 10.4268 20.6834C10.7908 20.3212 10.9964 19.8295 10.9985 19.316V15.441C10.9988 15.1859 10.9487 14.9333 10.8512 14.6976C10.7537 14.4618 10.6107 14.2476 10.4303 14.0673C10.2499 13.8869 10.0357 13.7438 9.8 13.6463C9.56426 13.5488 9.31161 13.4988 9.05651 13.499M9.05651 2.74805H5.18151C4.92773 2.74778 4.67638 2.79758 4.44186 2.89458C4.20734 2.99158 3.99425 3.13388 3.8148 3.31333C3.63534 3.49279 3.49304 3.70587 3.39604 3.94039C3.29904 4.17491 3.24925 4.42626 3.24951 4.68005V8.55505C3.24898 9.06853 3.45204 9.56128 3.81419 9.92531C4.17634 10.2893 4.66803 10.4949 5.18151 10.497H9.05651C9.31161 10.4973 9.56426 10.4473 9.8 10.3498C10.0357 10.2523 10.2499 10.1092 10.4303 9.92884C10.6107 9.74845 10.7537 9.53426 10.8512 9.29853C10.9487 9.0628 10.9988 8.81015 10.9985 8.55505V4.68005C10.9964 4.16657 10.7908 3.67487 10.4268 3.31272C10.0627 2.95057 9.57 2.74751 9.05651 2.74805ZM19.8175 2.74805H15.9425C15.429 2.74751 14.9363 2.95057 14.5723 3.31272C14.2082 3.67487 14.0026 4.16657 14.0005 4.68005V8.55505C14.0008 9.07002 14.2055 9.56382 14.5696 9.92796C14.9337 10.2921 15.4275 10.4968 15.9425 10.497H19.8175C20.331 10.4949 20.8227 10.2893 21.1848 9.92531C21.547 9.56128 21.75 9.06853 21.7495 8.55505V4.68005C21.7498 4.42626 21.7 4.17491 21.603 3.94039C21.506 3.70587 21.3637 3.49279 21.1842 3.31333C21.0048 3.13388 20.7917 2.99158 20.5572 2.89458C20.3226 2.79758 20.0713 2.74778 19.8175 2.74805Z" stroke="url(#paint1_linear_1_32938)" stroke-width="2" stroke-linecap="round" stroke-linejoin="round"/>
<defs>
<linearGradient id="paint0_linear_1_32938" x1="2.89951" y1="3.60117" x2="21.2995" y2="21.2012" gradientUnits="userSpaceOnUse">
<stop stop-color="#30D6AF"/>
<stop offset="0.985577" stop-color="#0088E1"/>
</linearGradient>
<linearGradient id="paint1_linear_1_32938" x1="3.29951" y1="3.20117" x2="21.6995" y2="20.8012" gradientUnits="userSpaceOnUse">
<stop stop-color="#30D6AF"/>
<stop offset="0.971154" stop-color="#0088E1"/>
</linearGradient>
</defs>
</svg>
