<svg width="20" height="20" viewBox="0 0 20 20" fill="none" xmlns="http://www.w3.org/2000/svg">
<path d="M2.5 8.33335C2.5 5.19085 2.5 3.61919 3.47667 2.64335C4.45333 1.66752 6.02417 1.66669 9.16667 1.66669H10.8333C13.9758 1.66669 15.5475 1.66669 16.5233 2.64335C17.4992 3.62002 17.5 5.19085 17.5 8.33335V11.6667C17.5 14.8092 17.5 16.3809 16.5233 17.3567C15.5467 18.3325 13.9758 18.3334 10.8333 18.3334H9.16667C6.02417 18.3334 4.4525 18.3334 3.47667 17.3567C2.50083 16.38 2.5 14.8092 2.5 11.6667V8.33335Z" stroke="white" stroke-width="1.25"/>
<path d="M6.6665 8.33337H13.3332M6.6665 11.6667H10.8332" stroke="white" stroke-width="1.25" stroke-linecap="round"/>
</svg>
