<svg width="27" height="27" viewBox="0 0 27 27" fill="none" xmlns="http://www.w3.org/2000/svg">
<path d="M23.6248 16.893C23.573 15.777 22.8114 15.75 21.7764 15.75C20.1834 15.75 19.919 16.1302 19.919 17.6254V19.4996C19.919 20.9948 20.1834 21.375 21.7764 21.375C22.8114 21.375 23.573 21.348 23.6248 20.232M11.5817 18.5625C11.5817 20.115 10.3374 21.375 8.8029 21.375C8.45528 21.375 8.28203 21.375 8.15378 21.2996C7.8444 21.1196 7.8759 20.754 7.8759 20.4379V16.6871C7.8759 16.371 7.8444 16.0054 8.15378 15.8254C8.28203 15.75 8.45528 15.75 8.80178 15.75C10.3374 15.75 11.5805 17.01 11.5805 18.5625H11.5817ZM15.7498 21.375C14.8768 21.375 14.4392 21.375 14.168 21.1005C13.8969 20.826 13.8969 20.3839 13.8969 19.4996V17.6254C13.8969 16.7411 13.8969 16.299 14.168 16.0245C14.4392 15.75 14.8768 15.75 15.7498 15.75C16.6228 15.75 17.0604 15.75 17.3315 16.0245C17.6027 16.299 17.6027 16.7411 17.6027 17.6254V19.4996C17.6027 20.3839 17.6027 20.826 17.3315 21.1005C17.0604 21.375 16.6228 21.375 15.7498 21.375Z" stroke="#0045BB" stroke-width="1.6875" stroke-linecap="round"/>
<path d="M21.375 12.375C21.375 11.25 21.375 10.6087 21.204 10.1959C21.033 9.783 20.7079 9.45675 20.0565 8.8065L14.7285 3.4785C14.1671 2.91712 13.887 2.637 13.5383 2.4705C13.4661 2.43583 13.3921 2.40503 13.3166 2.37825C12.9532 2.25 12.5561 2.25 11.763 2.25C8.11238 2.25 6.2865 2.25 5.05012 3.24675C4.80047 3.44806 4.57306 3.67547 4.37175 3.92513C3.375 5.16375 3.375 6.98738 3.375 10.638V15.75C3.375 19.9924 3.375 22.1141 4.6935 23.4315C6.012 24.7489 8.13263 24.75 12.375 24.75H21.375M13.5 2.8125V3.375C13.5 6.5565 13.5 8.14838 14.4889 9.13613C15.4766 10.125 17.0685 10.125 20.25 10.125H20.8125" stroke="#0045BB" stroke-width="1.6875" stroke-linecap="round" stroke-linejoin="round"/>
</svg>
