<svg width="21" height="21" viewBox="0 0 21 21" fill="none" xmlns="http://www.w3.org/2000/svg">
<path fill-rule="evenodd" clip-rule="evenodd" d="M10.4999 2.45651C14.9423 2.45651 18.5434 6.05758 18.5434 10.5C18.5434 14.9424 14.9423 18.5435 10.4999 18.5435C6.05749 18.5435 2.45642 14.9424 2.45642 10.5C2.45642 6.05758 6.05749 2.45651 10.4999 2.45651ZM10.4999 4.06521C8.79329 4.06521 7.15658 4.74316 5.94982 5.94991C4.74306 7.15667 4.06512 8.79338 4.06512 10.5C4.06512 12.2066 4.74306 13.8433 5.94982 15.0501C7.15658 16.2568 8.79329 16.9348 10.4999 16.9348C12.2065 16.9348 13.8432 16.2568 15.05 15.0501C16.2567 13.8433 16.9347 12.2066 16.9347 10.5C16.9347 8.79338 16.2567 7.15667 15.05 5.94991C13.8432 4.74316 12.2065 4.06521 10.4999 4.06521ZM10.5079 12.5543C10.7965 12.2569 11.1881 12.0814 11.6022 12.0641C12.0162 12.0467 12.4211 12.1888 12.7336 12.461L12.8325 12.5543C12.8494 12.572 12.8727 12.5961 12.8969 12.5736L13.1736 12.3202C13.3308 12.176 13.5388 12.1002 13.752 12.1094C13.9651 12.1186 14.1659 12.2121 14.3101 12.3693C14.4543 12.5265 14.5301 12.7346 14.5209 12.9477C14.5117 13.1609 14.4183 13.3616 14.261 13.5058L13.9843 13.7592C13.6867 14.0319 13.299 14.1855 12.8954 14.1907C12.4917 14.1959 12.1003 14.0523 11.7957 13.7874L11.6944 13.6916C11.6863 13.6828 11.6702 13.6651 11.6622 13.6739C11.0267 14.3303 9.97305 14.3303 9.33762 13.6739C9.32555 13.6619 9.31268 13.6844 9.30544 13.6916C9.00763 13.9988 8.60179 14.1777 8.17417 14.1903C7.74655 14.2029 7.33086 14.0482 7.01546 13.7592L6.73877 13.5058C6.58155 13.3616 6.48805 13.1609 6.47885 12.9477C6.46965 12.7346 6.5455 12.5265 6.6897 12.3693C6.83391 12.2121 7.03467 12.1186 7.24781 12.1094C7.46096 12.1002 7.66902 12.176 7.82625 12.3202L8.10214 12.5736C8.12064 12.5905 8.13833 12.5816 8.15362 12.568L8.16729 12.5543C8.31805 12.3984 8.49865 12.2744 8.69833 12.1897C8.89801 12.105 9.11268 12.0614 9.32957 12.0614C9.54647 12.0614 9.76114 12.105 9.96082 12.1897C10.1605 12.2744 10.3411 12.3984 10.4919 12.5543C10.4928 12.5555 10.4941 12.5564 10.4955 12.5571C10.4968 12.5577 10.4984 12.5581 10.4999 12.5581C10.5014 12.5581 10.503 12.5577 10.5043 12.5571C10.5057 12.5564 10.507 12.5555 10.5079 12.5543ZM7.68468 7.2826C8.00467 7.2826 8.31155 7.40971 8.53782 7.63598C8.76409 7.86225 8.8912 8.16913 8.8912 8.48912C8.8912 8.80911 8.76409 9.11599 8.53782 9.34226C8.31155 9.56853 8.00467 9.69564 7.68468 9.69564C7.36469 9.69564 7.05781 9.56853 6.83154 9.34226C6.60528 9.11599 6.47816 8.80911 6.47816 8.48912C6.47816 8.16913 6.60528 7.86225 6.83154 7.63598C7.05781 7.40971 7.36469 7.2826 7.68468 7.2826ZM13.3151 7.2826C13.6351 7.2826 13.942 7.40971 14.1683 7.63598C14.3945 7.86225 14.5216 8.16913 14.5216 8.48912C14.5216 8.80911 14.3945 9.11599 14.1683 9.34226C13.942 9.56853 13.6351 9.69564 13.3151 9.69564C12.9951 9.69564 12.6882 9.56853 12.462 9.34226C12.2357 9.11599 12.1086 8.80911 12.1086 8.48912C12.1086 8.16913 12.2357 7.86225 12.462 7.63598C12.6882 7.40971 12.9951 7.2826 13.3151 7.2826Z" fill="#EF4B4E"/>
</svg>
