<svg width="24" height="24" viewBox="0 0 24 24" fill="none" xmlns="http://www.w3.org/2000/svg">
<path d="M8.69198 11.25V7.50002C8.69198 7.27602 8.77065 7.08535 8.92798 6.92802C9.08465 6.77068 9.27532 6.69202 9.49998 6.69202C9.72465 6.69202 9.91532 6.77068 10.072 6.92802C10.2293 7.08535 10.308 7.27602 10.308 7.50002V11.25C10.308 11.4747 10.2293 11.6653 10.072 11.822C9.91465 11.9793 9.72398 12.058 9.49998 12.058C9.27598 12.058 9.08532 11.9793 8.92798 11.822C8.77065 11.6647 8.69198 11.474 8.69198 11.25ZM13.039 12.544V3.50002C13.039 3.27602 13.1173 3.08535 13.274 2.92802C13.4313 2.77068 13.622 2.69202 13.846 2.69202C14.0707 2.69202 14.2613 2.77068 14.418 2.92802C14.5753 3.08535 14.654 3.27602 14.654 3.50002V12.544C14.654 12.8133 14.5713 13.0154 14.406 13.15C14.24 13.2847 14.0543 13.352 13.849 13.352C13.6437 13.352 13.457 13.2847 13.289 13.15C13.121 13.0154 13.0376 12.8133 13.039 12.544ZM4.30798 14.686V11.5C4.30798 11.276 4.38632 11.0854 4.54298 10.928C4.70032 10.7707 4.89132 10.692 5.11598 10.692C5.34065 10.692 5.53132 10.7707 5.68798 10.928C5.84465 11.0854 5.92298 11.276 5.92298 11.5V14.687C5.92298 14.9564 5.84032 15.158 5.67498 15.292C5.50965 15.4267 5.32398 15.494 5.11798 15.494C4.91265 15.494 4.72598 15.4267 4.55798 15.292C4.39132 15.158 4.30798 14.9564 4.30798 14.687M5.39298 20.55C5.16965 20.55 5.01532 20.4484 4.92998 20.245C4.84465 20.0424 4.88332 19.8594 5.04598 19.696L8.95398 15.789C9.09865 15.6437 9.27698 15.5627 9.48898 15.546C9.70098 15.5294 9.88932 15.5937 10.054 15.739L13.039 18.304L19.792 11.55H18C17.858 11.55 17.7393 11.502 17.644 11.406C17.5486 11.31 17.5006 11.191 17.5 11.049C17.4993 10.907 17.5473 10.7883 17.644 10.693C17.7406 10.5977 17.8593 10.55 18 10.55H20.692C20.9213 10.55 21.1133 10.6273 21.268 10.782C21.4226 10.9367 21.5 11.1287 21.5 11.358V14.05C21.5 14.192 21.452 14.3107 21.356 14.406C21.26 14.5014 21.141 14.5493 20.999 14.55C20.857 14.5507 20.7383 14.5027 20.643 14.406C20.5476 14.3094 20.5 14.1907 20.5 14.05V12.258L13.596 19.162C13.4513 19.3067 13.273 19.3874 13.061 19.404C12.849 19.4207 12.6607 19.3564 12.496 19.211L9.51098 16.646L5.75398 20.404C5.71132 20.444 5.65765 20.4783 5.59298 20.507C5.52832 20.5357 5.46165 20.55 5.39298 20.55Z" fill="black"/>
</svg>
