<svg width="17" height="16" viewBox="0 0 17 16" fill="none" xmlns="http://www.w3.org/2000/svg">
<path d="M11 6H12.25C12.5815 6 12.8995 6.1317 13.1339 6.36612C13.3683 6.60054 13.5 6.91848 13.5 7.25V13.25C13.5 13.5815 13.3683 13.8995 13.1339 14.1339C12.8995 14.3683 12.5815 14.5 12.25 14.5H4.75C4.41848 14.5 4.10054 14.3683 3.86612 14.1339C3.6317 13.8995 3.5 13.5815 3.5 13.25V7.25C3.5 6.91848 3.6317 6.60054 3.86612 6.36612C4.10054 6.1317 4.41848 6 4.75 6H6M11 4L8.5 1.5M8.5 1.5L6 4M8.5 1.5V10.0312" stroke="#696974" stroke-linecap="round" stroke-linejoin="round"/>
</svg>
