<svg width="28" height="28" viewBox="0 0 28 28" fill="none" xmlns="http://www.w3.org/2000/svg">
<path d="M24.6541 13.8651H10.8165M5.93216 13.8651H3.93408M5.93216 13.8651C5.93216 13.2175 6.1894 12.5965 6.64729 12.1386C7.10518 11.6807 7.72621 11.4235 8.37376 11.4235C9.02131 11.4235 9.64235 11.6807 10.1002 12.1386C10.5581 12.5965 10.8154 13.2175 10.8154 13.8651C10.8154 14.5126 10.5581 15.1337 10.1002 15.5915C9.64235 16.0494 9.02131 16.3067 8.37376 16.3067C7.72621 16.3067 7.10518 16.0494 6.64729 15.5915C6.1894 15.1337 5.93216 14.5126 5.93216 13.8651ZM24.6541 21.2649H18.2163M18.2163 21.2649C18.2163 21.9126 17.9585 22.5343 17.5005 22.9923C17.0425 23.4503 16.4213 23.7076 15.7736 23.7076C15.126 23.7076 14.505 23.4493 14.0471 22.9914C13.5892 22.5335 13.332 21.9125 13.332 21.2649M18.2163 21.2649C18.2163 20.6172 17.9585 19.9966 17.5005 19.5386C17.0425 19.0806 16.4213 18.8233 15.7736 18.8233C15.126 18.8233 14.505 19.0806 14.0471 19.5384C13.5892 19.9963 13.332 20.6174 13.332 21.2649M13.332 21.2649H3.93408M24.6541 6.46524H21.1765M16.2922 6.46524H3.93408M16.2922 6.46524C16.2922 5.81768 16.5494 5.19665 17.0073 4.73876C17.4652 4.28088 18.0862 4.02364 18.7338 4.02364C19.0544 4.02364 19.3719 4.08679 19.6681 4.20949C19.9644 4.33219 20.2335 4.51204 20.4602 4.73876C20.687 4.96549 20.8668 5.23465 20.9895 5.53088C21.1122 5.8271 21.1754 6.1446 21.1754 6.46524C21.1754 6.78587 21.1122 7.10337 20.9895 7.3996C20.8668 7.69582 20.687 7.96498 20.4602 8.19171C20.2335 8.41843 19.9644 8.59828 19.6681 8.72098C19.3719 8.84368 19.0544 8.90684 18.7338 8.90684C18.0862 8.90684 17.4652 8.6496 17.0073 8.19171C16.5494 7.73382 16.2922 7.11279 16.2922 6.46524Z" stroke="white" stroke-width="1.5" stroke-miterlimit="10" stroke-linecap="round"/>
</svg>
