<svg width="23" height="23" viewBox="0 0 23 23" fill="none" xmlns="http://www.w3.org/2000/svg">
<path d="M14.8542 17.25C14.8542 17.6905 14.7674 18.1266 14.5989 18.5336C14.4303 18.9405 14.1832 19.3103 13.8718 19.6218C13.5603 19.9332 13.1905 20.1803 12.7836 20.3489C12.3766 20.5174 11.9405 20.6042 11.5 20.6042C11.0595 20.6042 10.6234 20.5174 10.2164 20.3489C9.80948 20.1803 9.43972 19.9332 9.12825 19.6218C8.81679 19.3103 8.56972 18.9405 8.40116 18.5336C8.2326 18.1266 8.14584 17.6905 8.14584 17.25M18.4297 17.25H4.57126C4.23601 17.2499 3.90832 17.1503 3.62964 16.964C3.35095 16.7776 3.13377 16.5128 3.00556 16.2031C2.87734 15.8933 2.84385 15.5525 2.90931 15.2237C2.97478 14.8949 3.13626 14.5929 3.37334 14.3558L3.95026 13.778C4.48911 13.2388 4.79177 12.5076 4.79167 11.7453V9.10418C4.79167 7.32502 5.49844 5.61873 6.7565 4.36067C8.01456 3.10261 9.72085 2.39584 11.5 2.39584C13.2792 2.39584 14.9855 3.10261 16.2435 4.36067C17.5016 5.61873 18.2083 7.32502 18.2083 9.10418V11.7453C18.2085 12.5078 18.5115 13.2389 19.0507 13.778L19.6286 14.3558C19.8652 14.5931 20.0263 14.895 20.0915 15.2237C20.1567 15.5523 20.1231 15.8929 19.995 16.2025C19.8668 16.5121 19.6499 16.7768 19.3715 16.9632C19.0931 17.1496 18.7648 17.2494 18.4297 17.25Z" stroke="black" stroke-width="1.5" stroke-linecap="round" stroke-linejoin="round"/>
</svg>
