<svg width="20" height="20" viewBox="0 0 20 20" fill="none" xmlns="http://www.w3.org/2000/svg">
<path d="M6.66333 12.5H9.52083M6.66333 9.16669H13.33M12.08 1.66669H7.91333C7.58181 1.66669 7.26387 1.79838 7.02945 2.0328C6.79503 2.26722 6.66333 2.58517 6.66333 2.91669C6.66333 3.24821 6.79503 3.56615 7.02945 3.80057C7.26387 4.03499 7.58181 4.16669 7.91333 4.16669H12.08C12.4115 4.16669 12.7295 4.03499 12.9639 3.80057C13.1983 3.56615 13.33 3.24821 13.33 2.91669C13.33 2.58517 13.1983 2.26722 12.9639 2.0328C12.7295 1.79838 12.4115 1.66669 12.08 1.66669Z" stroke="white" stroke-width="1.5" stroke-linecap="round" stroke-linejoin="round"/>
<path d="M13.33 2.91669C14.6241 2.95585 15.3966 3.10002 15.9308 3.63502C16.6641 4.36669 16.6641 5.54585 16.6641 7.90169V13.3334C16.6641 15.69 16.6641 16.8684 15.9308 17.6009C15.1991 18.3334 14.02 18.3334 11.6641 18.3334H8.33079C5.97246 18.3334 4.79412 18.3334 4.06246 17.6009C3.33079 16.8684 3.32996 15.69 3.32996 13.3334V7.90252C3.32996 5.54585 3.32996 4.36669 4.06246 3.63502C4.59662 3.10002 5.36912 2.95585 6.66329 2.91669" stroke="white" stroke-width="1.5" stroke-linecap="round" stroke-linejoin="round"/>
</svg>
