<svg width="27" height="27" viewBox="0 0 27 27" fill="none" xmlns="http://www.w3.org/2000/svg">
<path d="M23.625 16.0312C23.625 16.255 23.5361 16.4696 23.3779 16.6279C23.2196 16.7861 23.005 16.875 22.7812 16.875H20.25V18.5625H21.9375C22.1613 18.5625 22.3759 18.6514 22.5341 18.8096C22.6924 18.9679 22.7812 19.1825 22.7812 19.4062C22.7812 19.63 22.6924 19.8446 22.5341 20.0029C22.3759 20.1611 22.1613 20.25 21.9375 20.25H20.25V21.9375C20.25 22.1613 20.1611 22.3759 20.0029 22.5341C19.8446 22.6924 19.63 22.7812 19.4062 22.7812C19.1825 22.7812 18.9679 22.6924 18.8096 22.5341C18.6514 22.3759 18.5625 22.1613 18.5625 21.9375V16.0312C18.5625 15.8075 18.6514 15.5929 18.8096 15.4346C18.9679 15.2764 19.1825 15.1875 19.4062 15.1875H22.7812C23.005 15.1875 23.2196 15.2764 23.3779 15.4346C23.5361 15.5929 23.625 15.8075 23.625 16.0312ZM9.70312 18.1406C9.70312 18.9238 9.39199 19.675 8.83817 20.2288C8.28436 20.7826 7.53322 21.0938 6.75 21.0938H5.90625V21.9375C5.90625 22.1613 5.81736 22.3759 5.65912 22.5341C5.50089 22.6924 5.28628 22.7812 5.0625 22.7812C4.83872 22.7812 4.62411 22.6924 4.46588 22.5341C4.30765 22.3759 4.21875 22.1613 4.21875 21.9375V16.0312C4.21875 15.8075 4.30765 15.5929 4.46588 15.4346C4.62411 15.2764 4.83872 15.1875 5.0625 15.1875H6.75C7.53322 15.1875 8.28436 15.4986 8.83817 16.0524C9.39199 16.6063 9.70312 17.3574 9.70312 18.1406ZM8.01562 18.1406C8.01562 17.805 7.88228 17.483 7.64493 17.2457C7.40758 17.0083 7.08566 16.875 6.75 16.875H5.90625V19.4062H6.75C7.08566 19.4062 7.40758 19.2729 7.64493 19.0356C7.88228 18.7982 8.01562 18.4763 8.01562 18.1406ZM17.2969 18.9844C17.2969 19.9914 16.8968 20.9571 16.1848 21.6692C15.4727 22.3812 14.507 22.7812 13.5 22.7812H11.8125C11.5887 22.7812 11.3741 22.6924 11.2159 22.5341C11.0576 22.3759 10.9688 22.1613 10.9688 21.9375V16.0312C10.9688 15.8075 11.0576 15.5929 11.2159 15.4346C11.3741 15.2764 11.5887 15.1875 11.8125 15.1875H13.5C14.507 15.1875 15.4727 15.5875 16.1848 16.2996C16.8968 17.0116 17.2969 17.9774 17.2969 18.9844ZM15.6094 18.9844C15.6094 18.4249 15.3871 17.8884 14.9916 17.4928C14.596 17.0972 14.0594 16.875 13.5 16.875H12.6562V21.0938H13.5C14.0594 21.0938 14.596 20.8715 14.9916 20.4759C15.3871 20.0803 15.6094 19.5438 15.6094 18.9844ZM4.21875 11.8125V4.21875C4.21875 3.7712 4.39654 3.34198 4.71301 3.02551C5.02947 2.70904 5.4587 2.53125 5.90625 2.53125H16.0312C16.1421 2.53116 16.2519 2.55291 16.3543 2.59526C16.4567 2.63761 16.5498 2.69972 16.6282 2.77805L22.5345 8.6843C22.6128 8.76271 22.6749 8.85579 22.7172 8.95822C22.7596 9.06065 22.7813 9.17041 22.7812 9.28125V11.8125C22.7812 12.0363 22.6924 12.2509 22.5341 12.4091C22.3759 12.5674 22.1613 12.6562 21.9375 12.6562C21.7137 12.6562 21.4991 12.5674 21.3409 12.4091C21.1826 12.2509 21.0938 12.0363 21.0938 11.8125V10.125H16.0312C15.8075 10.125 15.5929 10.0361 15.4346 9.87787C15.2764 9.71964 15.1875 9.50503 15.1875 9.28125V4.21875H5.90625V11.8125C5.90625 12.0363 5.81736 12.2509 5.65912 12.4091C5.50089 12.5674 5.28628 12.6562 5.0625 12.6562C4.83872 12.6562 4.62411 12.5674 4.46588 12.4091C4.30765 12.2509 4.21875 12.0363 4.21875 11.8125ZM16.875 8.4375H19.9009L16.875 5.4116V8.4375Z" fill="#0045BB"/>
</svg>
