<svg width="21" height="21" viewBox="0 0 21 21" fill="none" xmlns="http://www.w3.org/2000/svg">
<path d="M10.5 8.89129C12.2769 8.89129 13.7174 7.45082 13.7174 5.6739C13.7174 3.89699 12.2769 2.45651 10.5 2.45651C8.72307 2.45651 7.28259 3.89699 7.28259 5.6739C7.28259 7.45082 8.72307 8.89129 10.5 8.89129Z" stroke="#16A34A" stroke-width="1.5"/>
<path d="M16.9331 15.3261C16.9342 15.1942 16.9348 15.0601 16.9348 14.9239C16.9348 12.9251 14.0536 11.3043 10.5 11.3043C6.94636 11.3043 4.06519 12.9251 4.06519 14.9239C4.06519 16.9227 4.06519 18.5435 10.5 18.5435C12.2945 18.5435 13.5887 18.4172 14.5217 18.192" stroke="#16A34A" stroke-width="1.5" stroke-linecap="round"/>
</svg>
