<svg width="24" height="24" viewBox="0 0 24 24" fill="none" xmlns="http://www.w3.org/2000/svg">
<path d="M21.6 12.0006C21.603 13.9066 21.0362 15.7701 19.9723 17.3516C19.0949 18.6605 17.9084 19.7331 16.5179 20.4744C15.1274 21.2157 13.5757 21.6029 12 21.6017C10.4243 21.6029 8.87259 21.2157 7.48209 20.4744C6.0916 19.7331 4.90518 18.6605 4.02776 17.3516C3.19227 16.106 2.66019 14.682 2.47416 13.1937C2.28814 11.7054 2.45335 10.1942 2.95655 8.78129C3.45976 7.36836 4.28695 6.09299 5.37183 5.05741C6.4567 4.02184 7.76908 3.25487 9.20376 2.81799C10.6384 2.38111 12.1555 2.28647 13.6333 2.54166C15.1112 2.79684 16.5087 3.39476 17.7138 4.28747C18.919 5.18019 19.8982 6.34286 20.5731 7.6823C21.248 9.02174 21.5997 10.5007 21.6 12.0006Z" stroke="black" stroke-width="1.5"/>
<path d="M13.3038 8.58231C13.3038 9.33018 12.7197 9.93715 12 9.93715V11.563C12.7607 11.563 13.4903 11.2489 14.0282 10.6899C14.5661 10.131 14.8683 9.37283 14.8683 8.58231H13.3038ZM12 9.93715C11.2803 9.93715 10.6962 9.33018 10.6962 8.58231H9.13168C9.13168 9.37283 9.43388 10.131 9.97179 10.6899C10.5097 11.2489 11.2393 11.563 12 11.563V9.93715ZM10.6962 8.58231C10.6962 7.83444 11.2803 7.22748 12 7.22748V5.60167C11.2393 5.60167 10.5097 5.9157 9.97179 6.47468C9.43388 7.03366 9.13168 7.7918 9.13168 8.58231H10.6962ZM12 7.22748C12.7197 7.22748 13.3038 7.83444 13.3038 8.58231H14.8683C14.8683 7.7918 14.5661 7.03366 14.0282 6.47468C13.4903 5.9157 12.7607 5.60167 12 5.60167V7.22748ZM4.87197 18.1811L4.12203 17.9491L4 18.374L4.27849 18.71L4.87197 18.1811ZM19.128 18.1811L19.7226 18.7111L20 18.3751L19.878 17.9491L19.128 18.1811ZM8.87093 15.8984H15.1291V14.2726H8.87093V15.8984ZM8.87093 14.2726C7.80393 14.2723 6.76536 14.63 5.90971 15.2924C5.05407 15.9549 4.42708 16.8866 4.12203 17.9491L5.6219 18.413C5.83077 17.6863 6.25979 17.049 6.84517 16.5959C7.43056 16.1428 8.14103 15.8982 8.87093 15.8984V14.2726ZM12 20.7759C10.7582 20.7773 9.53086 20.4988 8.4027 19.9595C7.27453 19.4202 6.2724 18.633 5.46545 17.6521L4.27849 18.71C5.23229 19.8686 6.41652 20.7997 7.74956 21.4368C9.08259 22.0739 10.5327 22.4031 12 22.4017V20.7759ZM15.1291 15.8984C16.6623 15.8984 17.9609 16.9585 18.3781 18.413L19.878 17.9491C19.5729 16.8866 18.9459 15.9549 18.0903 15.2924C17.2346 14.63 16.1961 14.2723 15.1291 14.2726V15.8984ZM18.5345 17.6521C17.7276 18.633 16.7255 19.4202 15.5973 19.9595C14.4691 20.4988 13.2418 20.7773 12 20.7759V22.4017C13.4673 22.4031 14.9174 22.0739 16.2504 21.4368C17.5835 20.7997 18.7688 19.8697 19.7226 18.7111L18.5345 17.6521Z" fill="black"/>
</svg>
