<svg width="20" height="20" viewBox="0 0 20 20" fill="none" xmlns="http://www.w3.org/2000/svg">
<path d="M6.04163 5C5.87587 5 5.71689 5.06585 5.59968 5.18306C5.48247 5.30027 5.41663 5.45924 5.41663 5.625V11.875C5.41663 12.0408 5.48247 12.1997 5.59968 12.3169C5.71689 12.4342 5.87587 12.5 6.04163 12.5C6.20739 12.5 6.36636 12.4342 6.48357 12.3169C6.60078 12.1997 6.66663 12.0408 6.66663 11.875V5.625C6.66663 5.45924 6.60078 5.30027 6.48357 5.18306C6.36636 5.06585 6.20739 5 6.04163 5ZM9.99996 5C9.8342 5 9.67523 5.06585 9.55802 5.18306C9.44081 5.30027 9.37496 5.45924 9.37496 5.625V9.375C9.37496 9.54076 9.44081 9.69973 9.55802 9.81694C9.67523 9.93415 9.8342 10 9.99996 10C10.1657 10 10.3247 9.93415 10.4419 9.81694C10.5591 9.69973 10.625 9.54076 10.625 9.375V5.625C10.625 5.45924 10.5591 5.30027 10.4419 5.18306C10.3247 5.06585 10.1657 5 9.99996 5ZM13.3333 5.625C13.3333 5.45924 13.3991 5.30027 13.5164 5.18306C13.6336 5.06585 13.7925 5 13.9583 5C14.1241 5 14.283 5.06585 14.4002 5.18306C14.5174 5.30027 14.5833 5.45924 14.5833 5.625V13.5417C14.5833 13.7074 14.5174 13.8664 14.4002 13.9836C14.283 14.1008 14.1241 14.1667 13.9583 14.1667C13.7925 14.1667 13.6336 14.1008 13.5164 13.9836C13.3991 13.8664 13.3333 13.7074 13.3333 13.5417V5.625Z" fill="white"/>
<path d="M3.12496 1.66669H16.875C17.68 1.66669 18.3333 2.32002 18.3333 3.12502V16.875C18.3333 17.2618 18.1796 17.6327 17.9062 17.9062C17.6327 18.1797 17.2617 18.3334 16.875 18.3334H3.12496C2.73819 18.3334 2.36725 18.1797 2.09376 17.9062C1.82027 17.6327 1.66663 17.2618 1.66663 16.875V3.12502C1.66663 2.32002 2.31996 1.66669 3.12496 1.66669ZM2.91663 3.12502V16.875C2.91663 16.99 3.00996 17.0834 3.12496 17.0834H16.875C16.9302 17.0834 16.9832 17.0614 17.0223 17.0223C17.0613 16.9833 17.0833 16.9303 17.0833 16.875V3.12502C17.0833 3.06977 17.0613 3.01678 17.0223 2.97771C16.9832 2.93864 16.9302 2.91669 16.875 2.91669H3.12496C3.06971 2.91669 3.01672 2.93864 2.97765 2.97771C2.93858 3.01678 2.91663 3.06977 2.91663 3.12502Z" fill="white"/>
</svg>
