<svg width="24" height="24" viewBox="0 0 24 24" fill="none" xmlns="http://www.w3.org/2000/svg">
<path d="M8 9.478C9.149 8.543 10.52 8 11.995 8C13.473 8 14.849 8.547 16 9.487M14.174 12C13.5221 11.5856 12.7664 11.3637 11.994 11.36C11.2255 11.3638 10.4736 11.5835 9.824 11.994" stroke="black" stroke-width="1.5" stroke-linecap="round"/>
<path d="M12 15H12.006" stroke="black" stroke-width="2" stroke-linecap="round" stroke-linejoin="round"/>
<path d="M21 11.183V8.28C21 6.64 21 5.82 20.596 5.285C20.192 4.75 19.278 4.491 17.451 3.971C16.349 3.6545 15.2702 3.26258 14.222 2.798C13.023 2.266 12.424 2 12 2C11.576 2 10.977 2.266 9.778 2.798C8.898 3.188 7.798 3.616 6.549 3.971C4.722 4.491 3.809 4.751 3.404 5.285C3 5.82 3 6.64 3 8.28V11.183C3 16.808 8.063 20.183 10.594 21.519C11.201 21.839 11.504 22 12 22C12.496 22 12.799 21.84 13.406 21.52C15.937 20.182 21 16.808 21 11.183Z" stroke="black" stroke-width="1.5" stroke-linecap="round"/>
</svg>
