<svg width="29" height="28" viewBox="0 0 29 28" fill="none" xmlns="http://www.w3.org/2000/svg">
<path d="M24.7471 8.84682L20.1304 11.1552M20.1304 11.1552L19.5534 11.4437L14.3596 14.0406M20.1304 11.1552V15.1948M20.1304 11.1552L9.16582 5.3843M14.3596 14.0406L3.97204 8.84682M14.3596 14.0406V25.0052M18.4892 4.09394L20.7976 5.30582C23.2802 6.60888 24.5221 7.25983 25.2123 8.43131C25.9013 9.60164 25.9013 11.0594 25.9013 13.9736V14.1087C25.9013 17.0218 25.9013 18.4795 25.2123 19.6499C24.5221 20.8213 23.2802 21.4735 20.7976 22.7765L18.4892 23.9872C16.4625 25.0502 15.4491 25.5823 14.3596 25.5823C13.2701 25.5823 12.2567 25.0514 10.23 23.9872L7.92162 22.7754C5.43899 21.4723 4.19711 20.8213 3.50691 19.6499C2.81787 18.4795 2.81787 17.0218 2.81787 14.1098V13.9748C2.81787 11.0605 2.81787 9.6028 3.50691 8.43247C4.19711 7.26098 5.43899 6.60888 7.92162 5.30697L10.23 4.09509C12.2567 3.03094 13.2701 2.49887 14.3596 2.49887C15.4491 2.49887 16.4625 3.02979 18.4892 4.09394Z" stroke="white" stroke-linecap="round"/>
</svg>
