<svg width="16" height="16" viewBox="0 0 16 16" fill="none" xmlns="http://www.w3.org/2000/svg">
<path d="M4.99994 3.16668C4.93428 3.16668 4.86926 3.17961 4.8086 3.20474C4.74793 3.22987 4.69281 3.2667 4.64638 3.31313C4.59995 3.35956 4.56312 3.41468 4.538 3.47534C4.51287 3.536 4.49994 3.60102 4.49994 3.66668C4.49994 3.73234 4.51287 3.79736 4.538 3.85802C4.56312 3.91869 4.59995 3.97381 4.64638 4.02023C4.69281 4.06666 4.74793 4.10349 4.8086 4.12862C4.86926 4.15375 4.93428 4.16668 4.99994 4.16668C5.13255 4.16668 5.25972 4.114 5.35349 4.02023C5.44726 3.92647 5.49994 3.79929 5.49994 3.66668C5.49994 3.53407 5.44726 3.4069 5.35349 3.31313C5.25972 3.21936 5.13255 3.16668 4.99994 3.16668ZM3.49994 3.66668C3.50002 3.3917 3.57569 3.12204 3.71867 2.88716C3.86166 2.65228 4.06646 2.46122 4.31069 2.33487C4.55492 2.20851 4.82918 2.15173 5.1035 2.17071C5.37783 2.1897 5.64165 2.28373 5.86615 2.44252C6.09064 2.60131 6.26717 2.81876 6.37643 3.0711C6.4857 3.32344 6.5235 3.60096 6.4857 3.87332C6.4479 4.14569 6.33596 4.40243 6.16211 4.61548C5.98826 4.82853 5.75919 4.98969 5.49994 5.08135V7.68535C5.55772 7.64268 5.61772 7.60313 5.67994 7.56668C6.3126 7.18535 7.12327 7.07401 7.81194 6.98001L7.93127 6.96335C8.70527 6.85535 9.3326 6.74868 9.7826 6.44535C10.1193 6.21735 10.4073 5.83868 10.4813 5.07468C10.1493 4.95247 9.87126 4.71689 9.69618 4.40954C9.52109 4.1022 9.46025 3.74287 9.5244 3.39501C9.58855 3.04716 9.77356 2.73317 10.0468 2.5085C10.32 2.28382 10.6638 2.16293 11.0175 2.16716C11.3712 2.17139 11.712 2.30048 11.9797 2.53163C12.2475 2.76278 12.4249 3.08111 12.4807 3.43039C12.5365 3.77968 12.4671 4.13746 12.2847 4.44052C12.1023 4.74359 11.8187 4.97245 11.4839 5.08668C11.3999 6.13801 10.9919 6.83468 10.3426 7.27335C9.66727 7.73001 8.7946 7.85335 8.06927 7.95335L8.0526 7.95601C7.2726 8.06401 6.64794 8.15068 6.19527 8.42268C5.98527 8.54935 5.8206 8.71335 5.70394 8.94401C5.58394 9.18001 5.49994 9.51468 5.49994 10V10.9187C5.83373 11.0366 6.11507 11.2688 6.29424 11.5741C6.4734 11.8795 6.53885 12.2383 6.47901 12.5873C6.41917 12.9362 6.2379 13.2527 5.96724 13.4809C5.69658 13.7091 5.35396 13.8343 4.99994 13.8343C4.64592 13.8343 4.30329 13.7091 4.03263 13.4809C3.76197 13.2527 3.5807 12.9362 3.52086 12.5873C3.46102 12.2383 3.52647 11.8795 3.70564 11.5741C3.8848 11.2688 4.16614 11.0366 4.49994 10.9187V5.08135C4.20741 4.97792 3.95416 4.78634 3.77506 4.53297C3.59597 4.27961 3.49984 3.97695 3.49994 3.66668ZM10.9999 3.16668C10.9343 3.16668 10.8693 3.17961 10.8086 3.20474C10.7479 3.22987 10.6928 3.2667 10.6464 3.31313C10.6 3.35956 10.5631 3.41468 10.538 3.47534C10.5129 3.536 10.4999 3.60102 10.4999 3.66668C10.4999 3.73234 10.5129 3.79736 10.538 3.85802C10.5631 3.91869 10.6 3.97381 10.6464 4.02023C10.6928 4.06666 10.7479 4.10349 10.8086 4.12862C10.8693 4.15375 10.9343 4.16668 10.9999 4.16668C11.1325 4.16668 11.2597 4.114 11.3535 4.02023C11.4473 3.92647 11.4999 3.79929 11.4999 3.66668C11.4999 3.53407 11.4473 3.4069 11.3535 3.31313C11.2597 3.21936 11.1325 3.16668 10.9999 3.16668ZM4.99994 11.8333C4.86733 11.8333 4.74015 11.886 4.64638 11.9798C4.55262 12.0736 4.49994 12.2007 4.49994 12.3333C4.49994 12.466 4.55262 12.5931 4.64638 12.6869C4.74015 12.7807 4.86733 12.8333 4.99994 12.8333C5.13255 12.8333 5.25972 12.7807 5.35349 12.6869C5.44726 12.5931 5.49994 12.466 5.49994 12.3333C5.49994 12.2007 5.44726 12.0736 5.35349 11.9798C5.25972 11.886 5.13255 11.8333 4.99994 11.8333Z" fill="#696974"/>
</svg>
