<svg width="17" height="16" viewBox="0 0 17 16" fill="none" xmlns="http://www.w3.org/2000/svg">
<path d="M5.28008 2.16666H9.05341C9.41008 2.16666 9.70675 2.16666 9.95008 2.18666C10.2034 2.20666 10.4407 2.25199 10.6654 2.36666C11.0105 2.54244 11.291 2.82295 11.4667 3.16799C11.5814 3.39266 11.6267 3.62999 11.6467 3.88332C11.6667 4.12666 11.6667 4.42332 11.6667 4.77999V6.83332C11.6667 6.96593 11.6141 7.09311 11.5203 7.18688C11.4265 7.28064 11.2994 7.33332 11.1667 7.33332C11.0341 7.33332 10.907 7.28064 10.8132 7.18688C10.7194 7.09311 10.6667 6.96593 10.6667 6.83332V4.79999C10.6667 4.41866 10.6667 4.16199 10.6501 3.96466C10.6347 3.77332 10.6067 3.68199 10.5761 3.62199C10.4963 3.46503 10.3689 3.33738 10.2121 3.25732C10.1514 3.22666 10.0601 3.19866 9.86875 3.18332C9.67142 3.16732 9.41542 3.16666 9.03341 3.16666H5.30008C4.91875 3.16666 4.66208 3.16666 4.46475 3.18332C4.27341 3.19866 4.18208 3.22666 4.12208 3.25732C3.96502 3.33726 3.83735 3.46493 3.75741 3.62199C3.72675 3.68199 3.69875 3.77332 3.68341 3.96466C3.66741 4.16199 3.66675 4.41799 3.66675 4.79999V11.2C3.66675 11.5813 3.66675 11.838 3.68341 12.0347C3.69875 12.2267 3.72675 12.318 3.75741 12.378C3.83341 12.5267 3.95075 12.6487 4.09608 12.7287C4.10675 12.7313 4.1303 12.7355 4.16675 12.7413C4.24453 12.7529 4.3503 12.7635 4.48408 12.7733C4.74941 12.7933 5.09075 12.8067 5.45341 12.8153C6.17675 12.8333 6.96008 12.8333 7.33342 12.8333C7.46602 12.8333 7.5932 12.886 7.68697 12.9798C7.78074 13.0735 7.83342 13.2007 7.83342 13.3333C7.83342 13.4659 7.78074 13.5931 7.68697 13.6869C7.5932 13.7806 7.46602 13.8333 7.33342 13.8333H7.33208C6.95875 13.8333 6.16541 13.8333 5.42875 13.8153C5.08912 13.8083 4.74969 13.7934 4.41075 13.7707C4.2803 13.7621 4.15021 13.7488 4.02075 13.7307C3.89868 13.7165 3.77951 13.6837 3.66741 13.6333C3.32283 13.4578 3.04258 13.1778 2.86675 12.8333C2.75208 12.608 2.70675 12.3707 2.68675 12.1173C2.66675 11.874 2.66675 11.5773 2.66675 11.2207V4.77999C2.66675 4.42332 2.66675 4.12666 2.68675 3.88332C2.70675 3.62999 2.75208 3.39266 2.86675 3.16799C3.04253 2.82295 3.32305 2.54244 3.66808 2.36666C3.89275 2.25199 4.13008 2.20666 4.38341 2.18666C4.62675 2.16666 4.92341 2.16666 5.28008 2.16666Z" fill="#696974"/>
<path d="M10.0806 8.16666H12.9193C13.1826 8.16666 13.4099 8.16666 13.5973 8.18199C13.7953 8.19799 13.9919 8.23399 14.1806 8.32999C14.4633 8.47399 14.6926 8.70332 14.8366 8.98599C14.9326 9.17466 14.9686 9.37132 14.9846 9.56932C14.9999 9.75599 14.9999 9.98399 14.9999 10.2473V11.7527C14.9999 12.016 14.9999 12.2433 14.9846 12.4307C14.9743 12.633 14.924 12.8312 14.8366 13.014C14.6929 13.2964 14.4635 13.526 14.1813 13.67C13.9919 13.766 13.7946 13.802 13.5973 13.818C13.4106 13.8333 13.1826 13.8333 12.9193 13.8333H10.0799C9.81659 13.8333 9.58925 13.8333 9.40192 13.818C9.19961 13.8077 9.00134 13.7574 8.81859 13.67C8.53619 13.5263 8.30655 13.2969 8.16259 13.0147C8.07512 12.8317 8.02481 12.6332 8.01459 12.4307C7.99925 12.244 7.99925 12.016 7.99925 11.7527V10.2467C7.99925 9.98332 7.99925 9.75599 8.01459 9.56866C8.0249 9.36634 8.0752 9.16808 8.16259 8.98532C8.30644 8.70283 8.53609 8.47318 8.81859 8.32932C9.00134 8.24194 9.19961 8.19164 9.40192 8.18132C9.58859 8.16599 9.81659 8.16599 10.0799 8.16599M9.48325 9.17799C9.34725 9.18932 9.29659 9.20799 9.27192 9.22066C9.1781 9.26855 9.10181 9.34484 9.05392 9.43866C9.04059 9.46399 9.02259 9.51399 9.01125 9.64999L9.00992 9.66599H13.9886L13.9873 9.64999C13.9759 9.51399 13.9573 9.46332 13.9446 9.43866C13.8965 9.34474 13.82 9.26843 13.7259 9.22066C13.7013 9.20732 13.6513 9.18932 13.5153 9.17799C13.3101 9.16669 13.1047 9.16269 12.8993 9.16599H10.0993C9.81125 9.16599 9.62459 9.16599 9.48325 9.17799ZM13.9999 11H8.99992V11.7333C8.99992 12.0213 8.99992 12.208 9.01192 12.3493C9.02325 12.4853 9.04192 12.536 9.05459 12.56C9.10236 12.6541 9.17867 12.7306 9.27259 12.7787C9.29792 12.792 9.34792 12.81 9.48392 12.8213C9.62525 12.8327 9.81192 12.8333 10.0999 12.8333H12.8999C13.1879 12.8333 13.3746 12.8333 13.5159 12.8213C13.6519 12.81 13.7026 12.7913 13.7266 12.7787C13.8208 12.7307 13.8973 12.6542 13.9453 12.56C13.9586 12.5353 13.9766 12.4853 13.9879 12.3493C13.9993 12.208 13.9999 12.0213 13.9999 11.7333V11ZM4.83325 4.16666C4.70064 4.16666 4.57347 4.21933 4.4797 4.3131C4.38593 4.40687 4.33325 4.53405 4.33325 4.66666C4.33325 4.79926 4.38593 4.92644 4.4797 5.02021C4.57347 5.11398 4.70064 5.16666 4.83325 5.16666H7.49992C7.63253 5.16666 7.7597 5.11398 7.85347 5.02021C7.94724 4.92644 7.99992 4.79926 7.99992 4.66666C7.99992 4.53405 7.94724 4.40687 7.85347 4.3131C7.7597 4.21933 7.63253 4.16666 7.49992 4.16666H4.83325ZM4.33325 6.66666C4.33325 6.53405 4.38593 6.40687 4.4797 6.3131C4.57347 6.21934 4.70064 6.16666 4.83325 6.16666H9.49992C9.63253 6.16666 9.7597 6.21934 9.85347 6.3131C9.94724 6.40687 9.99992 6.53405 9.99992 6.66666C9.99992 6.79926 9.94724 6.92644 9.85347 7.02021C9.7597 7.11398 9.63253 7.16666 9.49992 7.16666H4.83325C4.70064 7.16666 4.57347 7.11398 4.4797 7.02021C4.38593 6.92644 4.33325 6.79926 4.33325 6.66666ZM4.83325 8.16666C4.70064 8.16666 4.57347 8.21934 4.4797 8.3131C4.38593 8.40687 4.33325 8.53405 4.33325 8.66666C4.33325 8.79926 4.38593 8.92644 4.4797 9.02021C4.57347 9.11398 4.70064 9.16666 4.83325 9.16666H7.16659C7.29919 9.16666 7.42637 9.11398 7.52014 9.02021C7.61391 8.92644 7.66659 8.79926 7.66659 8.66666C7.66659 8.53405 7.61391 8.40687 7.52014 8.3131C7.42637 8.21934 7.29919 8.16666 7.16659 8.16666H4.83325ZM4.33325 11.3333C4.33325 11.2007 4.38593 11.0735 4.4797 10.9798C4.57347 10.886 4.70064 10.8333 4.83325 10.8333H6.16659C6.29919 10.8333 6.42637 10.886 6.52014 10.9798C6.61391 11.0735 6.66659 11.2007 6.66659 11.3333C6.66659 11.4659 6.61391 11.5931 6.52014 11.6869C6.42637 11.7806 6.29919 11.8333 6.16659 11.8333H4.83325C4.70064 11.8333 4.57347 11.7806 4.4797 11.6869C4.38593 11.5931 4.33325 11.4659 4.33325 11.3333Z" fill="#696974"/>
</svg>
