<svg width="20" height="20" viewBox="0 0 20 20" fill="none" xmlns="http://www.w3.org/2000/svg">
<path d="M14.1667 16.25C14.1667 14.8691 12.3008 13.75 10 13.75C7.69917 13.75 5.83333 14.8691 5.83333 16.25M17.5 13.75C17.5 12.725 16.4717 11.8441 15 11.4583M2.5 13.75C2.5 12.725 3.52833 11.8441 5 11.4583M15 8.11332C15.2469 7.89506 15.4482 7.63015 15.5923 7.33381C15.7365 7.03748 15.8206 6.71558 15.8399 6.38662C15.8592 6.05765 15.8132 5.72812 15.7047 5.41698C15.5962 5.10583 15.4272 4.81921 15.2075 4.5736C14.9878 4.32799 14.7218 4.12823 14.4246 3.98582C14.1274 3.84341 13.805 3.76115 13.476 3.74377C13.1469 3.7264 12.8176 3.77425 12.5071 3.88458C12.1966 3.99491 11.911 4.16554 11.6667 4.38665M5 8.11332C4.51025 7.6701 4.2158 7.05109 4.18097 6.39148C4.14615 5.73188 4.37377 5.08529 4.81413 4.59297C5.25449 4.10065 5.87178 3.80261 6.53118 3.76395C7.19057 3.7253 7.83846 3.94916 8.33333 4.38665M10 11.25C9.33696 11.25 8.70107 10.9866 8.23223 10.5177C7.76339 10.0489 7.5 9.41302 7.5 8.74998C7.5 8.08694 7.76339 7.45106 8.23223 6.98222C8.70107 6.51337 9.33696 6.24998 10 6.24998C10.663 6.24998 11.2989 6.51337 11.7678 6.98222C12.2366 7.45106 12.5 8.08694 12.5 8.74998C12.5 9.41302 12.2366 10.0489 11.7678 10.5177C11.2989 10.9866 10.663 11.25 10 11.25Z" stroke="white" stroke-width="1.5" stroke-linecap="round" stroke-linejoin="round"/>
</svg>
