<svg width="27" height="27" viewBox="0 0 27 27" fill="none" xmlns="http://www.w3.org/2000/svg">
<path d="M22.5 14.625V11.9891C22.5 11.0689 22.5 10.6099 22.329 10.1959C22.158 9.783 21.8329 9.45675 21.1815 8.8065L15.8535 3.4785C15.2921 2.91712 15.012 2.637 14.6633 2.4705C14.5911 2.43583 14.5171 2.40503 14.4416 2.37825C14.0782 2.25 13.6811 2.25 12.888 2.25C9.23738 2.25 7.4115 2.25 6.17512 3.24675C5.92547 3.44806 5.69806 3.67547 5.49675 3.92513C4.5 5.16375 4.5 6.98738 4.5 10.638V14.625M14.625 2.8125V3.375C14.625 6.5565 14.625 8.14838 15.6139 9.13613C16.6016 10.125 18.1935 10.125 21.375 10.125H21.9375M18.5625 18V22.5C18.5625 23.5609 18.5625 24.0908 18.8921 24.4204C19.2217 24.75 19.7516 24.75 20.8125 24.75H22.5M4.5 18L6.75 21.375M6.75 21.375L9 24.75M6.75 21.375L9 18M6.75 21.375L4.5 24.75M15.75 18H12.9375C12.6391 18 12.353 18.1185 12.142 18.3295C11.931 18.5405 11.8125 18.8266 11.8125 19.125V20.25C11.8125 20.5484 11.931 20.8345 12.142 21.0455C12.353 21.2565 12.6391 21.375 12.9375 21.375H14.625C14.9234 21.375 15.2095 21.4935 15.4205 21.7045C15.6315 21.9155 15.75 22.2016 15.75 22.5V23.625C15.75 23.9234 15.6315 24.2095 15.4205 24.4205C15.2095 24.6315 14.9234 24.75 14.625 24.75H11.8125" stroke="#0045BB" stroke-width="1.6875" stroke-linecap="round" stroke-linejoin="round"/>
</svg>
